<?xml version="1.0" encoding="UTF-8"?>
<!DOCTYPE svg PUBLIC "-//W3C//DTD SVG 1.1//EN" "http://www.w3.org/Graphics/SVG/1.1/DTD/svg11.dtd">
<svg xmlns="http://www.w3.org/2000/svg" version="1.1" width="900px" height="900px" style="shape-rendering:geometricPrecision; text-rendering:geometricPrecision; image-rendering:optimizeQuality; fill-rule:evenodd; clip-rule:evenodd" xmlns:xlink="http://www.w3.org/1999/xlink">
<g><path style="opacity:1" fill="#fefefe" d="M -0.5,-0.5 C 299.5,-0.5 599.5,-0.5 899.5,-0.5C 899.5,299.5 899.5,599.5 899.5,899.5C 599.5,899.5 299.5,899.5 -0.5,899.5C -0.5,599.5 -0.5,299.5 -0.5,-0.5 Z"/></g>
<g><path style="opacity:1" fill="#569d7b" d="M 133.5,388.5 C 140.865,387.765 146.699,390.432 151,396.5C 156.913,407.993 163.079,419.327 169.5,430.5C 170.328,431.415 171.328,432.081 172.5,432.5C 180.126,418.743 188.126,405.243 196.5,392C 202.765,387.347 209.098,387.347 215.5,392C 217.211,394.589 219.045,397.089 221,399.5C 237.868,429.355 254.702,459.188 271.5,489C 273.961,494.749 274.128,500.582 272,506.5C 270.062,509.106 267.562,510.939 264.5,512C 248.433,512.954 232.433,512.621 216.5,511C 213.727,508.617 211.561,505.783 210,502.5C 197.973,480.28 185.473,458.28 172.5,436.5C 171.328,436.919 170.328,437.585 169.5,438.5C 160.833,453.833 152.167,469.167 143.5,484.5C 141.641,486.192 139.641,487.692 137.5,489C 121.823,489.833 106.156,489.666 90.5,488.5C 82.8845,483.603 80.7178,476.936 84,468.5C 98.014,443.801 112.014,419.135 126,394.5C 128.478,392.361 130.978,390.361 133.5,388.5 Z"/></g>
<g><path style="opacity:1" fill="#aeaeaf" d="M 336.5,415.5 C 330.441,415.254 324.441,415.587 318.5,416.5C 318.611,415.883 318.944,415.383 319.5,415C 325.349,414.182 331.015,414.348 336.5,415.5 Z"/></g>
<g><path style="opacity:1" fill="#acacac" d="M 378.5,415.5 C 372.441,415.254 366.441,415.587 360.5,416.5C 360.611,415.883 360.944,415.383 361.5,415C 367.349,414.182 373.015,414.348 378.5,415.5 Z"/></g>
<g><path style="opacity:1" fill="#aaaaab" d="M 457.5,415.5 C 451.773,415.26 446.106,415.593 440.5,416.5C 440.611,415.883 440.944,415.383 441.5,415C 447.016,414.183 452.35,414.349 457.5,415.5 Z"/></g>
<g><path style="opacity:1" fill="#5b9f7f" d="M 804.5,483.5 C 801.615,483.806 798.948,483.473 796.5,482.5C 795.532,460.533 795.199,438.533 795.5,416.5C 795.5,416.167 795.5,415.833 795.5,415.5C 799.098,412.901 802.765,412.901 806.5,415.5C 807.666,437.159 807.833,458.826 807,480.5C 806.623,481.942 805.79,482.942 804.5,483.5 Z"/></g>
<g><path style="opacity:1" fill="#333841" d="M 457.5,415.5 C 469.175,416.321 476.508,422.321 479.5,433.5C 480.833,443.5 480.833,453.5 479.5,463.5C 476.572,474.96 469.239,481.294 457.5,482.5C 451.122,482.705 444.789,482.372 438.5,481.5C 430.59,479.424 425.423,474.424 423,466.5C 422.333,454.833 422.333,443.167 423,431.5C 425.942,423.114 431.776,418.114 440.5,416.5C 446.106,415.593 451.773,415.26 457.5,415.5 Z"/></g>
<g><path style="opacity:1" fill="#e1f5ea" d="M 795.5,415.5 C 795.5,415.833 795.5,416.167 795.5,416.5C 794.337,437.663 794.171,458.996 795,480.5C 795.278,481.416 795.778,482.082 796.5,482.5C 798.948,483.473 801.615,483.806 804.5,483.5C 801.36,484.641 798.027,484.808 794.5,484C 793.833,483.333 793.167,482.667 792.5,482C 792.828,459.55 793.828,437.383 795.5,415.5 Z"/></g>
<g><path style="opacity:1" fill="#313740" d="M 595.5,463.5 C 595.5,450.833 595.5,438.167 595.5,425.5C 592.167,425.5 588.833,425.5 585.5,425.5C 584.186,423.105 584.186,420.605 585.5,418C 588.757,416.957 592.09,416.457 595.5,416.5C 595.67,411.141 596.17,405.808 597,400.5C 599.667,399.167 602.333,399.167 605,400.5C 605.499,405.823 605.666,411.156 605.5,416.5C 613.833,416.5 622.167,416.5 630.5,416.5C 631.011,420.03 630.344,423.196 628.5,426C 620.841,426.5 613.174,426.666 605.5,426.5C 605.053,440.573 605.553,454.573 607,468.5C 608.637,470.81 610.804,472.31 613.5,473C 619.64,473.653 625.64,473.319 631.5,472C 633.444,474.153 633.944,476.653 633,479.5C 631.829,480.893 630.329,481.727 628.5,482C 620.754,482.896 613.087,482.563 605.5,481C 599.006,476.999 595.673,471.166 595.5,463.5 Z"/></g>
<g><path style="opacity:1" fill="#83ae9a" d="M 795.5,416.5 C 795.199,438.533 795.532,460.533 796.5,482.5C 795.778,482.082 795.278,481.416 795,480.5C 794.171,458.996 794.337,437.663 795.5,416.5 Z"/></g>
<g><path style="opacity:1" fill="#fafbfb" d="M 434.5,466.5 C 433.19,454.84 433.19,443.173 434.5,431.5C 438.316,425.975 443.65,423.642 450.5,424.5C 466.296,424.766 472.629,432.766 469.5,448.5C 472.041,468.457 463.375,476.624 443.5,473C 439.475,472.127 436.475,469.961 434.5,466.5 Z"/></g>
<g><path style="opacity:1" fill="#caecdb" d="M 743.5,425.5 C 744.191,444.372 744.857,463.372 745.5,482.5C 744.883,482.389 744.383,482.056 744,481.5C 743.5,462.836 743.333,444.17 743.5,425.5 Z"/></g>
<g><path style="opacity:1" fill="#589c7c" d="M 757.5,425.5 C 756.668,443.996 756.168,462.662 756,481.5C 752.769,483.84 749.269,484.173 745.5,482.5C 744.857,463.372 744.191,444.372 743.5,425.5C 737.132,425.83 730.798,425.496 724.5,424.5C 723.167,421.167 723.167,417.833 724.5,414.5C 741.49,413.334 758.49,413.167 775.5,414C 778.167,417.667 778.167,421.333 775.5,425C 769.509,425.499 763.509,425.666 757.5,425.5 Z"/></g>
<g><path style="opacity:1" fill="#9da2a7" d="M 585.5,425.5 C 588.833,425.5 592.167,425.5 595.5,425.5C 595.5,438.167 595.5,450.833 595.5,463.5C 594.505,451.345 594.171,439.011 594.5,426.5C 591.287,426.81 588.287,426.477 585.5,425.5 Z"/></g>
<g><path style="opacity:1" fill="#c0e3d3" d="M 757.5,425.5 C 757.667,444.503 757.5,463.503 757,482.5C 753.817,484.523 750.317,485.023 746.5,484C 745.944,483.617 745.611,483.117 745.5,482.5C 749.269,484.173 752.769,483.84 756,481.5C 756.168,462.662 756.668,443.996 757.5,425.5 Z"/></g>
<g><path style="opacity:1" fill="#313740" d="M 336.5,415.5 C 341.598,417.082 345.764,420.082 349,424.5C 351.91,420.41 355.744,417.744 360.5,416.5C 366.441,415.587 372.441,415.254 378.5,415.5C 382.4,417.123 386.067,419.289 389.5,422C 391.317,423.8 392.484,425.966 393,428.5C 394.095,437.952 394.595,447.452 394.5,457C 394.493,465.076 394.159,473.076 393.5,481C 390.571,481.777 387.737,481.61 385,480.5C 384.833,464.156 384.333,447.823 383.5,431.5C 380.038,426.538 375.204,424.205 369,424.5C 365.296,424.624 361.796,425.457 358.5,427C 356.859,428.129 355.859,429.629 355.5,431.5C 354.71,432.609 354.21,433.942 354,435.5C 353.5,450.163 353.333,464.83 353.5,479.5C 352.486,480.765 350.986,481.431 349,481.5C 347.236,481.456 345.569,481.122 344,480.5C 343.667,464.167 343.333,447.833 343,431.5C 341.945,428.944 340.112,427.277 337.5,426.5C 337.389,425.883 337.056,425.383 336.5,425C 331.316,424.184 326.316,424.35 321.5,425.5C 318.94,426.385 316.94,428.051 315.5,430.5C 314.778,430.918 314.278,431.584 314,432.5C 313.5,448.497 313.333,464.497 313.5,480.5C 310.396,481.775 307.396,481.775 304.5,480.5C 304.222,462.806 304.555,445.139 305.5,427.5C 307.685,421.317 312.018,417.65 318.5,416.5C 324.441,415.587 330.441,415.254 336.5,415.5 Z"/></g>
<g><path style="opacity:1" fill="#9ba0a4" d="M 321.5,425.5 C 326.316,424.35 331.316,424.184 336.5,425C 337.056,425.383 337.389,425.883 337.5,426.5C 332.228,425.6 326.895,425.267 321.5,425.5 Z"/></g>
<g><path style="opacity:1" fill="#4e5461" d="M 305.5,427.5 C 304.555,445.139 304.222,462.806 304.5,480.5C 303.338,464.005 303.172,447.338 304,430.5C 304.232,429.263 304.732,428.263 305.5,427.5 Z"/></g>
<g><path style="opacity:1" fill="#9ba0a6" d="M 355.5,431.5 C 354.91,447.652 354.243,463.652 353.5,479.5C 353.333,464.83 353.5,450.163 354,435.5C 354.21,433.942 354.71,432.609 355.5,431.5 Z"/></g>
<g><path style="opacity:1" fill="#ccd0d3" d="M 315.5,430.5 C 314.891,447.314 314.224,463.981 313.5,480.5C 313.333,464.497 313.5,448.497 314,432.5C 314.278,431.584 314.778,430.918 315.5,430.5 Z"/></g>
<g><path style="opacity:1" fill="#dadce0" d="M 434.5,431.5 C 433.19,443.173 433.19,454.84 434.5,466.5C 433.778,466.082 433.278,465.416 433,464.5C 432.333,454.167 432.333,443.833 433,433.5C 433.278,432.584 433.778,431.918 434.5,431.5 Z"/></g>
<g><path style="opacity:1" fill="#343a42" d="M 516.5,417.5 C 516.333,432.837 516.5,448.17 517,463.5C 517.278,464.416 517.778,465.082 518.5,465.5C 519.831,469.853 522.831,472.353 527.5,473C 533.253,473.851 538.92,473.517 544.5,472C 546.624,470.878 548.457,469.378 550,467.5C 551.289,451.233 551.956,434.9 552,418.5C 555.071,416.232 558.404,415.899 562,417.5C 562.942,434.553 562.609,451.553 561,468.5C 558.154,475.672 552.987,480.172 545.5,482C 542,482.167 538.5,482.333 535,482.5C 520.769,484.559 511.436,478.892 507,465.5C 506.333,449.5 506.333,433.5 507,417.5C 510.165,416.208 513.332,416.208 516.5,417.5 Z"/></g>
<g><path style="opacity:1" fill="#bbbec3" d="M 516.5,417.5 C 517.211,433.359 517.877,449.359 518.5,465.5C 517.778,465.082 517.278,464.416 517,463.5C 516.5,448.17 516.333,432.837 516.5,417.5 Z"/></g>
<g><path style="opacity:1" fill="#a3a9b0" d="M 701.5,458.5 C 702.117,458.611 702.617,458.944 703,459.5C 703.808,463.027 703.641,466.36 702.5,469.5C 702.677,465.766 702.344,462.099 701.5,458.5 Z"/></g>
<g><path style="opacity:1" fill="#323841" d="M 701.5,458.5 C 702.344,462.099 702.677,465.766 702.5,469.5C 701.264,476.8 696.931,480.967 689.5,482C 678.351,483.149 667.351,482.482 656.5,480C 654.653,477.421 654.153,474.588 655,471.5C 655.725,470.941 656.558,470.608 657.5,470.5C 668.069,473.594 678.735,474.094 689.5,472C 693.782,467.349 693.449,463.015 688.5,459C 679.824,454.662 671.158,450.329 662.5,446C 655.146,439.315 653.646,431.482 658,422.5C 659.873,420.291 662.04,418.458 664.5,417C 675.578,414.786 686.578,415.119 697.5,418C 700.524,420.475 701.19,423.475 699.5,427C 696.181,427.736 693.181,427.07 690.5,425C 683.833,424.333 677.167,424.333 670.5,425C 667.317,426.018 665.984,428.185 666.5,431.5C 666.258,434.514 667.258,437.014 669.5,439C 677.617,442.296 685.617,445.796 693.5,449.5C 696.926,451.92 699.592,454.92 701.5,458.5 Z"/></g>
<g><path style="opacity:1" fill="#a9adb1" d="M 438.5,481.5 C 444.789,482.372 451.122,482.705 457.5,482.5C 452.015,483.652 446.349,483.818 440.5,483C 439.584,482.722 438.918,482.222 438.5,481.5 Z"/></g>
</svg>
